<svg width="32" height="32" viewBox="0 0 32 32" fill="none" xmlns="http://www.w3.org/2000/svg">
<g id="Frame" clip-path="url(#clip0_1_4)">
<path id="Vector" d="M6.84364 2.736L4.79273 0.464C0 5.7008 0 9.496 0 14.4H1.45455L2.90909 14.2992C2.90909 9.6144 2.90909 7.0336 6.84364 2.736ZM27.2058 0.464L25.1578 2.736C29.0909 7.0336 29.0909 9.6144 29.0909 14.4L32 14.2992C32 9.496 32 5.7008 27.2058 0.464ZM16 32C16.9008 32.0012 17.7796 31.6937 18.5142 31.1203C19.2488 30.5468 19.8027 29.7358 20.0989 28.8H11.9011C12.1973 29.7358 12.7512 30.5468 13.4858 31.1203C14.2204 31.6937 15.0992 32.0012 16 32ZM26.1818 20.1376V12.8C26.1818 7.6528 23.0036 3.3168 18.6982 2.0128C18.272 0.832 17.2305 0 16 0C14.7695 0 13.728 0.832 13.3018 2.0128C8.99491 3.3168 5.81818 7.6528 5.81818 12.8V20.1376L3.33527 22.8688C3.19994 23.0171 3.09261 23.1934 3.01947 23.3876C2.94633 23.5817 2.90881 23.7898 2.90909 24V25.6C2.90909 26.0243 3.06234 26.4313 3.33512 26.7314C3.6079 27.0314 3.97787 27.2 4.36364 27.2H27.6364C28.0221 27.2 28.3921 27.0314 28.6649 26.7314C28.9377 26.4313 29.0909 26.0243 29.0909 25.6V24C29.0912 23.7898 29.0537 23.5817 28.9805 23.3876C28.9074 23.1934 28.8001 23.0171 28.6647 22.8688L26.1818 20.1376Z" fill="#FF7468"/>
</g>
<defs>
<clipPath id="clip0_1_4">
<rect width="32" height="32" fill="white"/>
</clipPath>
</defs>
</svg>
