<svg width="44" height="33" viewBox="0 0 44 33" fill="none" xmlns="http://www.w3.org/2000/svg">
<g id="checkmark.icloud 1" clip-path="url(#clip0_1_858)">
<g id="Group">
<path id="Vector" d="M34.5839 30.1704C39.8695 30.1704 44 26.334 44 21.5602C44 17.9147 41.8822 14.7554 38.4693 13.3319C38.5044 5.58967 32.8862 0 25.728 0C20.9849 0 17.607 2.5171 15.5067 5.55496C11.2013 4.3051 6.51073 7.55127 6.42322 12.4119C2.46777 13.0368 0 16.5434 0 20.7791C0 25.8825 4.49802 30.1704 10.4837 30.1704H34.5839ZM34.5839 27.3755H10.4837C6.07318 27.3755 2.81783 24.3202 2.81783 20.7791C2.81783 17.3072 4.93556 14.547 8.64598 14.547C8.89101 14.547 8.97852 14.4255 8.97852 14.1999C8.97852 8.85321 12.8639 7.27353 16.4519 8.43658C16.6619 8.50603 16.7844 8.45395 16.8894 8.263C18.5871 5.25984 21.1949 2.79485 25.728 2.79485C31.4686 2.79485 35.4415 7.30824 35.739 12.4639C35.7915 13.2625 35.739 14.1999 35.6689 15.0158C35.6516 15.2414 35.739 15.3629 35.9491 15.415C39.1343 16.1094 41.1821 18.4181 41.1821 21.5602C41.1821 24.789 38.3119 27.3755 34.5839 27.3755Z" fill="white"/>
<path id="Vector_2" d="M20.7572 23.3482C21.3348 23.3482 21.8248 23.0704 22.1575 22.5495L29.0006 11.4918C29.1757 11.214 29.4032 10.8148 29.4032 10.4155C29.4032 9.65172 28.7382 9.07886 27.9156 9.07886C27.4255 9.07886 26.953 9.37397 26.6729 9.86004L20.6873 19.7721L17.6769 15.8663C17.3444 15.415 16.9068 15.172 16.3818 15.172C15.5942 15.172 14.9641 15.7969 14.9641 16.6128C14.9641 16.9773 15.1041 17.3245 15.3667 17.6717L19.2871 22.567C19.7072 23.105 20.1798 23.3482 20.7572 23.3482Z" fill="white"/>
</g>
</g>
<defs>
<clipPath id="clip0_1_858">
<rect width="44" height="33" fill="white"/>
</clipPath>
</defs>
</svg>
