<svg width="32" height="32" viewBox="0 0 32 32" fill="none" xmlns="http://www.w3.org/2000/svg">
<path d="M16 0C12.8355 0 9.74207 0.938383 7.11088 2.69649C4.4797 4.45459 2.42894 6.95345 1.21793 9.87706C0.00693262 12.8007 -0.309921 16.0177 0.307443 19.1214C0.924806 22.2251 2.44866 25.0761 4.6863 27.3137C6.92394 29.5513 9.77486 31.0752 12.8786 31.6926C15.9823 32.3099 19.1993 31.9931 22.1229 30.7821C25.0466 29.5711 27.5454 27.5203 29.3035 24.8891C31.0616 22.2579 32 19.1645 32 16C32 11.7565 30.3143 7.68687 27.3137 4.68629C24.3131 1.68571 20.2435 0 16 0ZM21.392 21.392C21.1192 21.6647 20.7493 21.8179 20.3636 21.8179C19.9779 21.8179 19.608 21.6647 19.3353 21.392L14.9716 17.0284C14.6988 16.7556 14.5455 16.3857 14.5455 16V7.27273C14.5455 6.88696 14.6987 6.51699 14.9715 6.24421C15.2443 5.97143 15.6142 5.81818 16 5.81818C16.3858 5.81818 16.7557 5.97143 17.0285 6.24421C17.3013 6.51699 17.4545 6.88696 17.4545 7.27273V15.3978L21.392 19.3353C21.6647 19.608 21.8179 19.9779 21.8179 20.3636C21.8179 20.7493 21.6647 21.1192 21.392 21.392Z" fill="#FF7468"/>
</svg>
