<svg width="32" height="32" viewBox="0 0 32 32" fill="none" xmlns="http://www.w3.org/2000/svg">
<g id="Frame">
<g id="Layer_2">
<g id="Group">
<path id="Vector" d="M24.8888 0H23.111C22.0444 0 21.3333 0.711111 21.3333 1.77778C21.3333 2.84444 22.0444 3.55556 23.111 3.55556H24.8888C26.8444 3.55556 28.4444 5.15556 28.4444 7.11111V9.06667C28.4444 10.1333 29.1555 10.8444 30.2221 10.8444C31.2888 10.8444 31.9999 10.1333 31.9999 9.06667V7.11111C31.9999 3.2 28.7999 0 24.8888 0Z" fill="#A5A5A5"/>
<path id="Vector_2" d="M30.2224 21.3333C29.1557 21.3333 28.4446 22.0444 28.4446 23.1111V24.8889C28.4446 26.8444 26.8446 28.4444 24.8891 28.4444H23.1113C22.0446 28.4444 21.3335 29.1555 21.3335 30.2222C21.3335 31.2889 22.0446 32 23.1113 32H24.8891C28.8002 32 32.0002 28.8 32.0002 24.8889V23.1111C32.0002 22.0444 31.2891 21.3333 30.2224 21.3333Z" fill="#A5A5A5"/>
<path id="Vector_3" d="M8.88889 28.4444H7.11111C5.15556 28.4444 3.55556 26.8444 3.55556 24.8889V23.1111C3.55556 22.0444 2.84444 21.3333 1.77778 21.3333C0.711111 21.3333 0 22.0444 0 23.1111V24.8889C0 28.8 3.2 32 7.11111 32H8.88889C9.95556 32 10.6667 31.2889 10.6667 30.2222C10.6667 29.1555 9.95556 28.4444 8.88889 28.4444Z" fill="#A5A5A5"/>
<path id="Vector_4" d="M1.77778 10.6667C2.84444 10.6667 3.55556 9.95556 3.55556 8.88889V7.11111C3.55556 5.15556 5.15556 3.55556 7.11111 3.55556H8.88889C9.95556 3.55556 10.6667 2.84444 10.6667 1.77778C10.6667 0.711111 9.95556 0 8.88889 0H7.11111C3.2 0 0 3.2 0 7.11111V8.88889C0 9.77778 0.711111 10.6667 1.77778 10.6667Z" fill="#A5A5A5"/>
<path id="Vector_5" d="M30.2222 14.2223H1.77778C0.711111 14.2223 0 14.9334 0 16.0001C0 17.0667 0.711111 17.7778 1.77778 17.7778H30.2222C31.2889 17.7778 32 17.0667 32 16.0001C32 14.9334 31.2889 14.2223 30.2222 14.2223Z" fill="#A5A5A5"/>
</g>
</g>
</g>
</svg>
