<svg width="32" height="32" viewBox="0 0 32 32" fill="none" xmlns="http://www.w3.org/2000/svg">
<g id="Frame">
<g id="Layer_2">
<g id="Group">
<path id="Vector" d="M24.8889 0H23.1111C22.0444 0 21.3333 0.711111 21.3333 1.77778C21.3333 2.84444 22.0444 3.55556 23.1111 3.55556H24.8889C26.8444 3.55556 28.4444 5.15556 28.4444 7.11111V9.06667C28.4444 10.1333 29.1556 10.8444 30.2222 10.8444C31.2889 10.8444 32 10.1333 32 9.06667V7.11111C32 3.2 28.8 0 24.8889 0Z" fill="#FF7468"/>
<path id="Vector_2" d="M30.2223 21.3333C29.1556 21.3333 28.4445 22.0444 28.4445 23.111V24.8888C28.4445 26.8444 26.8445 28.4444 24.8889 28.4444H23.1112C22.0445 28.4444 21.3334 29.1555 21.3334 30.2221C21.3334 31.2888 22.0445 31.9999 23.1112 31.9999H24.8889C28.8 31.9999 32 28.7999 32 24.8888V23.111C32 22.0444 31.2889 21.3333 30.2223 21.3333Z" fill="#FF7468"/>
<path id="Vector_3" d="M8.88889 28.4444H7.11111C5.15556 28.4444 3.55556 26.8444 3.55556 24.8888V23.111C3.55556 22.0444 2.84444 21.3333 1.77778 21.3333C0.711111 21.3333 0 22.0444 0 23.111V24.8888C0 28.7999 3.2 31.9999 7.11111 31.9999H8.88889C9.95556 31.9999 10.6667 31.2888 10.6667 30.2221C10.6667 29.1555 9.95556 28.4444 8.88889 28.4444Z" fill="#FF7468"/>
<path id="Vector_4" d="M1.77778 10.6667C2.84444 10.6667 3.55556 9.95556 3.55556 8.88889V7.11111C3.55556 5.15556 5.15556 3.55556 7.11111 3.55556H8.88889C9.95556 3.55556 10.6667 2.84444 10.6667 1.77778C10.6667 0.711111 9.95556 0 8.88889 0H7.11111C3.2 0 0 3.2 0 7.11111V8.88889C0 9.77778 0.711111 10.6667 1.77778 10.6667Z" fill="#FF7468"/>
<path id="Vector_5" d="M30.2222 14.2224H1.77778C0.711111 14.2224 0 14.9335 0 16.0002C0 17.0669 0.711111 17.778 1.77778 17.778H30.2222C31.2889 17.778 32 17.0669 32 16.0002C32 14.9335 31.2889 14.2224 30.2222 14.2224Z" fill="#FF7468"/>
</g>
</g>
</g>
</svg>
